<svg viewBox="0 0 32 29" fill="none" xmlns="http://www.w3.org/2000/svg">
<path d="M1 28V25.0101C1 25.0101 8.5 22.0203 16 22.0203C23.5 22.0203 31 25.0101 31 25.0101V28H1ZM14.95 8.71532C13.15 2.88506 4 4.23051 4 4.23051C4 4.23051 4.3 15.891 12.85 14.0971C12.25 9.76177 10 8.56582 10 8.56582C14.2 8.56582 14.5 13.6486 14.5 13.6486V20.5253H17.5V14.2466C17.5 14.2466 17.5 8.41633 22 6.92139C22 6.92139 19 11.4062 19 14.3961C29.5 15.4425 29.5 1.09114 29.5 1.09114C29.5 1.09114 16.15 -0.403796 14.95 8.71532Z" stroke="#535353" stroke-width="2" stroke-linejoin="round"/>
</svg>
