<svg viewBox="0 0 30 27" fill="none" xmlns="http://www.w3.org/2000/svg">
<path d="M1.63952 12.3362C2.00114 13.2845 2.52636 14.2855 3.21041 15.3114L1.63952 12.3362ZM1.63952 12.3362C1.20842 11.2037 1 10.1136 1 9.08811C1 7.99225 1.21896 6.92958 1.64843 5.92694L1.63952 12.3362ZM26.5974 3.35775L26.5966 3.35696C25.848 2.61971 24.9655 2.03405 23.9974 1.63163L23.9961 1.63109C22.9918 1.21198 21.9148 0.997508 20.8276 1.00002L20.8253 1.00003C19.2971 1.00002 17.8078 1.4203 16.514 2.21323L16.5139 2.21325C16.2044 2.40296 15.911 2.61089 15.6334 2.83706C15.2656 3.13678 14.7378 3.13678 14.37 2.83706C14.0925 2.61089 13.7991 2.40296 13.4895 2.21325L13.4895 2.21323C12.1957 1.4203 10.7063 1.00002 9.17813 1.00002C8.0759 1.00002 7.01236 1.21168 6.00729 1.6311L6.00621 1.63155C5.03443 2.03574 4.15933 2.61655 3.40654 3.35726L3.40518 3.3586C2.65825 4.09076 2.06133 4.96329 1.64847 5.92687L26.5974 3.35775ZM26.5974 3.35775C27.3438 4.09116 27.9409 4.96397 28.3552 5.92745L26.5974 3.35775ZM7.70861 20.4224L7.70872 20.4225C9.28543 21.8853 10.8584 23.1253 12.0556 24.0108C12.6534 24.4529 13.1556 24.8052 13.5152 25.0512C13.695 25.1742 13.8388 25.2703 13.9408 25.3377C13.9918 25.3713 14.0321 25.3976 14.0609 25.4163C14.0799 25.4286 14.092 25.4364 14.0984 25.4404C14.1026 25.4431 14.1043 25.4441 14.1038 25.4438L14.1196 25.4538L14.9406 25.9828C14.9408 25.9829 14.941 25.983 14.9411 25.9831C14.9766 26.0056 15.0233 26.0056 15.0588 25.9831C15.059 25.983 15.0592 25.9829 15.0593 25.9828L15.8804 25.4538L15.8806 25.4537C15.9962 25.3792 19.1279 23.3541 22.2914 20.4224H7.70861ZM7.70861 20.4224C5.80521 18.657 4.29553 16.9365 3.21074 15.3119L7.70861 20.4224Z" stroke="#535353" stroke-width="2" stroke-linejoin="round"/>
</svg>
