<svg width="30" height="27" viewBox="0 0 30 27" fill="#108928" xmlns="http://www.w3.org/2000/svg">
<mask id="path-1-inside-1_1549_11096" fill="white">
<path d="M29.2742 5.53311C28.8087 4.45035 28.1375 3.46916 27.2983 2.64446C26.4583 1.81731 25.4681 1.15999 24.3813 0.708232C23.2543 0.23793 22.0456 -0.0027972 20.8253 2.45217e-05C19.1133 2.45217e-05 17.443 0.471 15.9914 1.36062C15.6442 1.57343 15.3143 1.80717 15.0017 2.06185C14.6892 1.80717 14.3593 1.57343 14.012 1.36062C12.5605 0.471 10.8901 2.45217e-05 9.17813 2.45217e-05C7.94535 2.45217e-05 6.75077 0.237257 5.62217 0.708232C4.53177 1.16176 3.54902 1.81415 2.70517 2.64446C1.86479 3.46823 1.19346 4.44965 0.72925 5.53311C0.246556 6.65997 0 7.85659 0 9.08811C0 10.2498 0.236138 11.4604 0.704942 12.6919C1.09735 13.7211 1.65991 14.7887 2.37874 15.8667C3.51776 17.5726 5.08392 19.3519 7.02858 21.1555C10.2512 24.1454 13.4425 26.2107 13.5779 26.2944L14.401 26.8247C14.7656 27.0584 15.2344 27.0584 15.599 26.8247L16.422 26.2944C16.5575 26.2072 19.7453 24.1454 22.9714 21.1555C24.916 19.3519 26.4822 17.5726 27.6212 15.8667C28.3401 14.7887 28.9061 13.7211 29.295 12.6919C29.7638 11.4604 30 10.2498 30 9.08811C30.0034 7.85659 29.7569 6.65997 29.2742 5.53311Z"/>
</mask>
<path d="M29.2742 5.53311C28.8087 4.45035 28.1375 3.46916 27.2983 2.64446C26.4583 1.81731 25.4681 1.15999 24.3813 0.708232C23.2543 0.23793 22.0456 -0.0027972 20.8253 2.45217e-05C19.1133 2.45217e-05 17.443 0.471 15.9914 1.36062C15.6442 1.57343 15.3143 1.80717 15.0017 2.06185C14.6892 1.80717 14.3593 1.57343 14.012 1.36062C12.5605 0.471 10.8901 2.45217e-05 9.17813 2.45217e-05C7.94535 2.45217e-05 6.75077 0.237257 5.62217 0.708232C4.53177 1.16176 3.54902 1.81415 2.70517 2.64446C1.86479 3.46823 1.19346 4.44965 0.72925 5.53311C0.246556 6.65997 0 7.85659 0 9.08811C0 10.2498 0.236138 11.4604 0.704942 12.6919C1.09735 13.7211 1.65991 14.7887 2.37874 15.8667C3.51776 17.5726 5.08392 19.3519 7.02858 21.1555C10.2512 24.1454 13.4425 26.2107 13.5779 26.2944L14.401 26.8247C14.7656 27.0584 15.2344 27.0584 15.599 26.8247L16.422 26.2944C16.5575 26.2072 19.7453 24.1454 22.9714 21.1555C24.916 19.3519 26.4822 17.5726 27.6212 15.8667C28.3401 14.7887 28.9061 13.7211 29.295 12.6919C29.7638 11.4604 30 10.2498 30 9.08811C30.0034 7.85659 29.7569 6.65997 29.2742 5.53311Z" mask="url(#path-1-inside-1_1549_11096)"/>
</svg>
