<svg viewBox="0 0 35 33" fill="#108928" xmlns="http://www.w3.org/2000/svg">
<path d="M17.6581 1.4433L17.659 1.44424L33.3301 16.872C33.3302 16.8721 33.3303 16.8722 33.3303 16.8722C33.8839 17.4179 33.8838 18.2955 33.3325 18.8409L33.331 18.8424C33.0656 19.106 32.7005 19.2565 32.3122 19.2565H30.661C30.1087 19.2565 29.661 19.7043 29.661 20.2565V31.2653C29.661 31.3625 29.5788 31.4648 29.4435 31.4648H20.3269V24.0686C20.3269 23.5163 19.8792 23.0686 19.3269 23.0686H15.0657C14.5135 23.0686 14.0657 23.5163 14.0657 24.0686V31.4648H5.55792C5.42267 31.4648 5.34044 31.3625 5.34044 31.2653V20.2565C5.34044 19.7043 4.89272 19.2565 4.34044 19.2565H2.68922C1.88434 19.2565 1.25424 18.6145 1.25424 17.8576C1.25424 17.4923 1.4026 17.1369 1.67107 16.8723C1.67112 16.8722 1.67116 16.8722 1.67121 16.8721C1.67125 16.8721 1.67129 16.872 1.67133 16.872L17.3424 1.44424L17.3434 1.4433C17.3627 1.42426 17.3864 1.40837 17.4136 1.39727C17.4408 1.38615 17.4704 1.38025 17.5007 1.38025C17.531 1.38025 17.5607 1.38615 17.5879 1.39727C17.615 1.40837 17.6388 1.42426 17.6581 1.4433Z"/>
</svg>
