<svg viewBox="0 0 29 35" fill="none" xmlns="http://www.w3.org/2000/svg">
<path d="M14.3335 32.8333C14.9028 33.6555 14.903 33.6553 14.9033 33.6551L14.9042 33.6545L14.9068 33.6527L14.9153 33.6467L14.9454 33.6256C14.9713 33.6073 15.0085 33.5809 15.0564 33.5464C15.1521 33.4776 15.2904 33.3767 15.4652 33.2456C15.8147 32.9835 16.3106 32.6002 16.904 32.1096C18.0893 31.1298 19.6715 29.7159 21.2555 27.9806C24.3855 24.5517 27.69 19.6859 27.6668 14.3311C27.6656 6.97954 21.6853 1 14.3335 1C6.98204 1 1.00135 6.97912 1.00013 14.3234C0.976943 19.6738 4.15454 24.4554 7.23334 27.8522C10.2418 31.1714 13.3082 33.3339 13.7224 33.626C13.7358 33.6355 13.7465 33.643 13.7543 33.6485C14.0975 33.8924 14.5566 33.8951 14.9028 33.6555L14.3335 32.8333ZM14.3335 19.5C11.4787 19.5 9.16679 17.1881 9.16679 14.3333C9.16679 11.4785 11.4787 9.16667 14.3335 9.16667C17.1883 9.16667 19.5001 11.4785 19.5001 14.3333C19.5001 17.1881 17.1883 19.5 14.3335 19.5Z" stroke="#535353" stroke-width="2" stroke-linejoin="round"/>
</svg>
