<svg viewBox="0 0 37 37" fill="none" xmlns="http://www.w3.org/2000/svg">
<path d="M18.5 17.5C16.9253 17.5 15.4151 16.8744 14.3016 15.7609C13.1881 14.6474 12.5625 13.1372 12.5625 11.5625C12.5625 9.98778 13.1881 8.47755 14.3016 7.36405C15.4151 6.25056 16.9253 5.625 18.5 5.625C20.0747 5.625 21.5849 6.25056 22.6984 7.36405C23.8119 8.47755 24.4375 9.98778 24.4375 11.5625C24.4375 13.1372 23.8119 14.6474 22.6984 15.7609C21.5849 16.8744 20.0747 17.5 18.5 17.5ZM6.94513 31.375C6.94504 31.375 6.94494 31.375 6.94484 31.375C6.9397 31.3748 6.92754 31.3743 6.90938 31.373C6.87273 31.3704 6.81385 31.3647 6.74057 31.3525C6.58927 31.3273 6.40281 31.2787 6.22846 31.1915C6.05803 31.1063 5.91802 30.9942 5.81838 30.8447C5.72291 30.7015 5.625 30.4656 5.625 30.0625C5.625 29.163 6.10367 27.1074 7.93367 25.2774C9.73436 23.4767 12.9296 21.8125 18.5 21.8125C24.0704 21.8125 27.2656 23.4767 29.0663 25.2774C30.8963 27.1074 31.375 29.163 31.375 30.0625C31.375 30.4656 31.2771 30.7015 31.1816 30.8447C31.082 30.9942 30.942 31.1063 30.7715 31.1915C30.5972 31.2787 30.4107 31.3273 30.2594 31.3525C30.1861 31.3647 30.1273 31.3704 30.0906 31.373C30.0725 31.3743 30.0603 31.3748 30.0552 31.375C30.0551 31.375 30.055 31.375 30.0549 31.375H6.94513Z" stroke="#535353" stroke-width="2" stroke-linejoin="round"/>
</svg>
