<svg width="31" height="31" viewBox="0 0 31 31" fill="none" xmlns="http://www.w3.org/2000/svg">
<path d="M21.75 6.125H9.25C8.4212 6.125 7.62634 6.45424 7.04029 7.04029C6.45424 7.62634 6.125 8.4212 6.125 9.25V21.75C6.125 22.5788 6.45424 23.3737 7.04029 23.9597C7.62634 24.5458 8.4212 24.875 9.25 24.875H21.75C22.5788 24.875 23.3737 24.5458 23.9597 23.9597C24.5458 23.3737 24.875 22.5788 24.875 21.75V9.25C24.875 8.4212 24.5458 7.62634 23.9597 7.04029C23.3737 6.45424 22.5788 6.125 21.75 6.125ZM11.3333 10.2917C11.6424 10.2917 11.9445 10.3833 12.2014 10.555C12.4584 10.7267 12.6586 10.9707 12.7769 11.2562C12.8952 11.5417 12.9261 11.8559 12.8658 12.159C12.8055 12.4621 12.6567 12.7405 12.4382 12.959C12.2197 13.1775 11.9413 13.3264 11.6382 13.3866C11.3351 13.4469 11.0209 13.416 10.7354 13.2977C10.4499 13.1795 10.2059 12.9792 10.0342 12.7222C9.86247 12.4653 9.77083 12.1632 9.77083 11.8542C9.77083 11.4398 9.93545 11.0423 10.2285 10.7493C10.5215 10.4563 10.9189 10.2917 11.3333 10.2917V10.2917ZM22.7917 21.5729C22.8147 21.8726 22.718 22.1691 22.5227 22.3976C22.3274 22.626 22.0496 22.7677 21.75 22.7917H9.25L17.1354 15.6875C17.2678 15.5667 17.4406 15.4998 17.6198 15.4998C17.799 15.4998 17.9718 15.5667 18.1042 15.6875L22.7917 20.3542V21.5729Z" fill="#108928"/>
</svg>
