<svg width="20" height="20" viewBox="0 0 20 20" fill="none" xmlns="http://www.w3.org/2000/svg">
<path fill-rule="evenodd" clip-rule="evenodd" d="M4.53681 18.4723C4.19309 18.1344 4 17.676 4 17.1981C4 16.7202 4.19309 16.2619 4.53681 15.9239L10.5744 9.98912L4.53681 4.0543C4.20283 3.71439 4.01803 3.25914 4.02221 2.78659C4.02638 2.31405 4.21921 1.86202 4.55915 1.52787C4.89909 1.19372 5.35894 1.00417 5.83967 1.00007C6.3204 0.995962 6.78354 1.17762 7.12933 1.50591L14.4632 8.71493C14.8069 9.0529 15 9.51123 15 9.98912C15 10.467 14.8069 10.9253 14.4632 11.2633L7.12933 18.4723C6.78551 18.8102 6.31924 19 5.83307 19C5.3469 19 4.88064 18.8102 4.53681 18.4723Z" fill="black"/>
</svg>
