<svg width="29" height="29" viewBox="0 0 29 29" fill="none" xmlns="http://www.w3.org/2000/svg">
<path d="M16.7321 14.4999L28.2746 2.95743C28.5339 2.65453 28.6695 2.26491 28.6541 1.86642C28.6387 1.46794 28.4735 1.08993 28.1915 0.807951C27.9095 0.525968 27.5315 0.360774 27.1331 0.345382C26.7346 0.32999 26.3449 0.465534 26.0421 0.724926L14.4996 12.2674L2.95705 0.709092C2.65416 0.4497 2.26454 0.314158 1.86605 0.32955C1.46756 0.344942 1.08956 0.510134 0.807577 0.792117C0.525594 1.0741 0.3604 1.4521 0.345008 1.85059C0.329616 2.24908 0.46516 2.6387 0.724552 2.94159L12.2671 14.4999L0.708718 26.0424C0.542972 26.1844 0.408356 26.359 0.31332 26.5555C0.218283 26.7519 0.164876 26.9659 0.156453 27.1839C0.148031 27.402 0.184774 27.6194 0.264375 27.8226C0.343976 28.0258 0.464719 28.2103 0.619022 28.3646C0.773325 28.5189 0.957858 28.6397 1.16104 28.7193C1.36422 28.7989 1.58166 28.8356 1.79972 28.8272C2.01777 28.8188 2.23173 28.7654 2.42817 28.6703C2.62461 28.5753 2.79928 28.4407 2.94122 28.2749L14.4996 16.7324L26.0421 28.2749C26.3449 28.5343 26.7346 28.6699 27.1331 28.6545C27.5315 28.6391 27.9095 28.4739 28.1915 28.1919C28.4735 27.9099 28.6387 27.5319 28.6541 27.1334C28.6695 26.7349 28.5339 26.3453 28.2746 26.0424L16.7321 14.4999Z" fill="black"/>
</svg>
