<svg width="27" height="27" viewBox="0 0 27 27" fill="none" xmlns="http://www.w3.org/2000/svg">
<path d="M25.9971 10.2799L24.0142 11.8658C24.108 12.4039 24.1565 12.9533 24.1565 13.5027C24.1565 14.0521 24.108 14.6016 24.0142 15.1396L25.9971 16.7256C26.1466 16.8454 26.2537 17.0049 26.304 17.183C26.3543 17.361 26.3454 17.5492 26.2786 17.7225L26.2514 17.7961C25.7055 19.2234 24.8881 20.5465 23.8386 21.7015L23.7841 21.7609C23.6568 21.901 23.4871 22.0016 23.2974 22.0497C23.1077 22.0977 22.9069 22.0908 22.7215 22.03L20.2603 21.2115C19.3521 21.9082 18.3379 22.4576 17.242 22.8428L16.7667 25.25C16.7308 25.4311 16.6369 25.5978 16.4974 25.7278C16.3579 25.8578 16.1794 25.945 15.9857 25.9778L15.9039 25.992C14.3267 26.2582 12.6677 26.2582 11.0904 25.992L11.0087 25.9778C10.8149 25.945 10.6364 25.8578 10.4969 25.7278C10.3574 25.5978 10.2635 25.4311 10.2276 25.25L9.74932 22.8314C8.66217 22.4462 7.64976 21.8971 6.75225 21.2059L4.27286 22.03C4.08748 22.0913 3.88654 22.0984 3.69674 22.0504C3.50694 22.0023 3.33726 21.9014 3.21026 21.7609L3.15577 21.7015C2.10754 20.5456 1.29025 19.2228 0.742975 17.7961L0.715729 17.7225C0.579498 17.3685 0.69151 16.972 0.997272 16.7256L3.0044 15.1227C2.91055 14.5902 2.86514 14.0465 2.86514 13.5056C2.86514 12.9618 2.91055 12.4181 3.0044 11.8885L0.997272 10.2855C0.847708 10.1658 0.740663 10.0062 0.690372 9.82817C0.64008 9.6501 0.648924 9.46193 0.715729 9.28867L0.742975 9.21504C1.29092 7.7877 2.10225 6.4708 3.15577 5.30967L3.21026 5.2502C3.33757 5.11016 3.50725 5.00949 3.69694 4.96146C3.88663 4.91344 4.08742 4.9203 4.27286 4.98115L6.75225 5.80527C7.6544 5.11143 8.66251 4.56201 9.74932 4.17969L10.2276 1.76113C10.2635 1.58 10.3574 1.41337 10.4969 1.28336C10.6364 1.15336 10.8149 1.06614 11.0087 1.0333L11.0904 1.01914C12.6822 0.751504 14.3122 0.751504 15.9039 1.01914L15.9857 1.0333C16.1794 1.06614 16.3579 1.15336 16.4974 1.28336C16.6369 1.41337 16.7308 1.58 16.7667 1.76113L17.242 4.16836C18.3375 4.55251 19.3573 5.10371 20.2603 5.79961L22.7215 4.98115C22.9069 4.91982 23.1078 4.91271 23.2976 4.96076C23.4874 5.00882 23.6571 5.10977 23.7841 5.2502L23.8386 5.30967C24.8921 6.47363 25.7034 7.7877 26.2514 9.21504L26.2786 9.28867C26.4149 9.63701 26.3028 10.0335 25.9971 10.2799V10.2799ZM21.8648 14.8055C21.9404 14.3778 21.9798 13.9389 21.9798 13.4999C21.9798 13.0609 21.9404 12.622 21.8648 12.1943L21.6649 11.0587L23.9264 9.24902C23.5835 8.51018 23.1508 7.81077 22.6367 7.16465L19.8274 8.09639L18.8768 7.36572C18.1532 6.81065 17.348 6.37451 16.4761 6.06865L15.3227 5.66367L14.7808 2.9166C13.9258 2.82598 13.0625 2.82598 12.2075 2.9166L11.6656 5.66934L10.5213 6.07998C9.6585 6.38584 8.85626 6.82197 8.13878 7.37422L7.18819 8.10771L4.36065 7.16748C3.846 7.81602 3.41612 8.51553 3.071 9.25186L5.35665 11.0785L5.15987 12.2113C5.08721 12.6333 5.04786 13.0694 5.04786 13.4999C5.04786 13.9332 5.08419 14.3665 5.15987 14.7885L5.35665 15.9213L3.071 17.7479C3.41309 18.4871 3.846 19.1838 4.36065 19.8323L7.18819 18.8921L8.13878 19.6256C8.85626 20.1778 9.6585 20.614 10.5213 20.9198L11.6687 21.3248L12.2106 24.0775C13.0612 24.1682 13.9301 24.1682 14.7838 24.0775L15.3257 21.3305L16.4791 20.9255C17.348 20.6196 18.1563 20.1835 18.8798 19.6284L19.8304 18.8978L22.6398 19.8295C23.1544 19.181 23.5843 18.4814 23.9294 17.7451L21.668 15.9355L21.8648 14.8055ZM13.5002 18.7675C10.5576 18.7675 8.17208 16.5358 8.17208 13.7831C8.17208 11.0304 10.5576 8.79873 13.5002 8.79873C16.4428 8.79873 18.8283 11.0304 18.8283 13.7831C18.8283 16.5358 16.4428 18.7675 13.5002 18.7675ZM15.8979 11.5401C15.5834 11.2451 15.2097 11.0112 14.7982 10.8517C14.3867 10.6923 13.9456 10.6106 13.5002 10.6112C12.595 10.6112 11.7443 10.9426 11.1025 11.5401C10.7872 11.8343 10.5371 12.1839 10.3667 12.5689C10.1963 12.9538 10.1089 13.3665 10.1096 13.7831C10.1096 14.6299 10.4638 15.4257 11.1025 16.0261C11.7443 16.6265 12.595 16.955 13.5002 16.955C14.4054 16.955 15.2561 16.6265 15.8979 16.0261C16.2132 15.7319 16.4633 15.3823 16.6337 14.9973C16.8041 14.6124 16.8915 14.1997 16.8908 13.7831C16.8908 12.9363 16.5366 12.1405 15.8979 11.5401Z" fill="black"/>
</svg>
