<svg width="17" height="16" viewBox="0 0 17 16" fill="none" xmlns="http://www.w3.org/2000/svg">
<path d="M15.4081 3.3401L12.6681 0.600102C12.3105 0.264198 11.8419 0.0714609 11.3514 0.0585541C10.861 0.0456473 10.3829 0.213471 10.0081 0.530102L1.00811 9.5301C0.684875 9.85607 0.483614 10.2833 0.438109 10.7401L0.0081092 14.9101C-0.00536184 15.0566 0.0136435 15.2042 0.0637704 15.3425C0.113897 15.4808 0.193911 15.6063 0.298109 15.7101C0.391549 15.8028 0.502365 15.8761 0.624203 15.9259C0.74604 15.9756 0.876503 16.0009 1.00811 16.0001H1.09811L5.26811 15.6201C5.72491 15.5746 6.15214 15.3733 6.47811 15.0501L15.4781 6.0501C15.8274 5.68107 16.0162 5.18861 16.0031 4.68064C15.99 4.17266 15.776 3.69061 15.4081 3.3401ZM5.08811 13.6201L2.08811 13.9001L2.35811 10.9001L8.00811 5.3201L10.7081 8.0201L5.08811 13.6201ZM12.0081 6.6801L9.32811 4.0001L11.2781 2.0001L14.0081 4.7301L12.0081 6.6801Z" fill="black"/>
</svg>
