<svg width="40" height="53" viewBox="0 0 40 53" fill="none" xmlns="http://www.w3.org/2000/svg">
<path d="M18.1505 51.3455C3.37268 29.7868 0.629639 27.5742 0.629639 19.651C0.629639 8.79804 9.37249 0 20.1574 0C30.9423 0 39.6852 8.79804 39.6852 19.651C39.6852 27.5742 36.9422 29.7868 22.1643 51.3455C21.1945 52.7553 19.1202 52.7552 18.1505 51.3455Z" fill="#FFB800"/>
<path d="M27.8087 9.52778H25.5247V7.48611H23.2408V9.52778H16.3889V7.48611H14.1049V9.52778H11.821C10.5614 9.52778 9.53705 10.4435 9.53705 11.5694V25.8611C9.53705 26.9871 10.5614 27.9028 11.821 27.9028H27.8087C29.0683 27.9028 30.0926 26.9871 30.0926 25.8611V11.5694C30.0926 10.4435 29.0683 9.52778 27.8087 9.52778ZM22.5693 24.8403L19.7726 23.5254L16.9759 24.8403L17.5103 22.0554L15.2469 20.0852L18.3737 19.6789L19.7726 17.1473L21.1715 19.6789L24.2982 20.0852L22.036 22.0565L22.5693 24.8403ZM27.8087 14.6319H11.821V12.5903H27.8087V14.6319Z" fill="white"/>
</svg>
