<svg width="40" height="54" viewBox="0 0 40 54" fill="none" xmlns="http://www.w3.org/2000/svg">
<path d="M17.9446 52.9105C2.80938 30.6947 0 28.4147 0 20.25C0 9.0662 8.95427 0 20 0C31.0457 0 40 9.0662 40 20.25C40 28.4147 37.1906 30.6947 22.0554 52.9105C21.0622 54.3632 18.9377 54.3631 17.9446 52.9105Z" fill="#1CAE33"/>
<path d="M11 30C10.175 30 9.469 29.7317 8.882 29.195C8.294 28.6574 8 28.0114 8 27.2571V14.9143C8 14.48 8.1065 14.0686 8.3195 13.68C8.5315 13.2914 8.825 12.9714 9.2 12.72L18.2 6.54857C18.725 6.18286 19.325 6 20 6C20.675 6 21.275 6.18286 21.8 6.54857L30.8 12.72C31.175 12.9714 31.469 13.2914 31.682 13.68C31.894 14.0686 32 14.48 32 14.9143V27.2571C32 28.0114 31.7065 28.6574 31.1195 29.195C30.5315 29.7317 29.825 30 29 30H11ZM17 20.4V25.2C17 25.3829 17.075 25.5429 17.225 25.68C17.375 25.8171 17.55 25.8857 17.75 25.8857C17.95 25.8857 18.125 25.8171 18.275 25.68C18.425 25.5429 18.5 25.3829 18.5 25.2V20.4C19.125 20.4 19.656 20.1998 20.093 19.7993C20.531 19.3998 20.75 18.9143 20.75 18.3429V14.9143C20.75 14.7314 20.675 14.5714 20.525 14.4343C20.375 14.2971 20.2 14.2286 20 14.2286C19.8 14.2286 19.625 14.2971 19.475 14.4343C19.325 14.5714 19.25 14.7314 19.25 14.9143V18.3429H18.5V14.9143C18.5 14.7314 18.425 14.5714 18.275 14.4343C18.125 14.2971 17.95 14.2286 17.75 14.2286C17.55 14.2286 17.375 14.2971 17.225 14.4343C17.075 14.5714 17 14.7314 17 14.9143V18.3429H16.25V14.9143C16.25 14.7314 16.175 14.5714 16.025 14.4343C15.875 14.2971 15.7 14.2286 15.5 14.2286C15.3 14.2286 15.125 14.2971 14.975 14.4343C14.825 14.5714 14.75 14.7314 14.75 14.9143V18.3429C14.75 18.9143 14.969 19.3998 15.407 19.7993C15.844 20.1998 16.375 20.4 17 20.4ZM23.75 25.8857C23.95 25.8857 24.125 25.8171 24.275 25.68C24.425 25.5429 24.5 25.3829 24.5 25.2V15.0514C24.5 14.8686 24.425 14.7086 24.275 14.5714C24.125 14.4343 23.95 14.3657 23.75 14.3657C23.05 14.3657 22.5 14.6286 22.1 15.1543C21.7 15.68 21.5 16.2857 21.5 16.9714V20.4C21.5 20.5829 21.575 20.7429 21.725 20.88C21.875 21.0171 22.05 21.0857 22.25 21.0857H23V25.2C23 25.3829 23.075 25.5429 23.225 25.68C23.375 25.8171 23.55 25.8857 23.75 25.8857Z" fill="white"/>
</svg>
