<svg viewBox="0 0 64 64" xmlns="http://www.w3.org/2000/svg"><g id="Flat"><g id="Color"><ellipse cx="32" cy="53.5" fill="#fccd1d" rx="29" ry="7.5"/><ellipse cx="32" cy="53.5" fill="#f9a215" rx="20" ry="3.5"/><path d="M54,25A22,22,0,1,0,22.86,45l7.82,7.84a2,2,0,0,0,2.64,0L41.14,45A22,22,0,0,0,54,25Z" fill="#dd051d"/><circle cx="32" cy="25" fill="#fff" r="18"/><path d="M25.67,15H38.33A4.67,4.67,0,0,1,43,19.67v2.55a.78.78,0,0,1-.78.78H21.78a.78.78,0,0,1-.78-.78V19.67A4.67,4.67,0,0,1,25.67,15Z" fill="#f9a215"/><path d="M21.8,31H42.2a.8.8,0,0,1,.8.8v.8A2.4,2.4,0,0,1,40.6,35H23.4A2.4,2.4,0,0,1,21,32.6v-.8a.8.8,0,0,1,.8-.8Z" fill="#f9a215"/><path d="M43,25a5.12,5.12,0,0,0-3.34,1.19,3.3,3.3,0,0,1-4.33,0,5.27,5.27,0,0,0-6.67,0,3.18,3.18,0,0,1-2.17.81,3.13,3.13,0,0,1-2.15-.81A5.12,5.12,0,0,0,21,25a1,1,0,0,0,0,2,3.15,3.15,0,0,1,2.16.81,5.27,5.27,0,0,0,6.67,0,3.3,3.3,0,0,1,4.33,0,5.28,5.28,0,0,0,6.68,0A3.13,3.13,0,0,1,43,27a1,1,0,0,0,0-2Z" fill="#dd051d"/></g></g></svg>