<svg width="93" height="162" viewBox="0 0 93 162" fill="none" xmlns="http://www.w3.org/2000/svg">
<g clip-path="url(#clip0_766_8201)">
<path d="M46.0646 30.6586C54.8655 30.6586 62 23.7955 62 15.3293C62 6.86317 54.8655 0 46.0646 0C37.2637 0 30.1292 6.86317 30.1292 15.3293C30.1292 23.7955 37.2637 30.6586 46.0646 30.6586Z" fill="#18C641"/>
<path d="M88.3676 89.5594C85.8105 89.5594 83.7352 87.4933 83.7352 84.9477C83.7352 61.8891 67.5774 44.5122 46.1572 44.5122C32.4638 44.5122 11.1257 47.9029 9.50564 77.3291C9.50564 79.8748 7.43032 81.9408 4.87324 81.9408C2.31616 81.9408 0.389081 79.8748 0.240844 77.3291C-1.20446 53.0162 17.3992 35.2888 46.1572 35.2888C72.8583 35.2888 93 56.6318 93 84.9477C93 87.4933 90.9246 89.5594 88.3676 89.5594Z" fill="url(#paint0_linear_766_8201)"/>
<path d="M42.2846 159.786C43.8781 162.646 47.9732 162.756 49.7149 159.971L78.3617 114.038C78.4729 113.817 78.6026 113.596 78.7138 113.374C82.3641 107.527 80.4555 104.003 76.5829 101.882C73.1919 100.019 69.4675 101.495 65.2242 108.357L51.4011 128.648C49.6594 131.581 45.342 131.434 43.8225 128.372C36.1328 112.839 17.6958 77.5137 16.3061 74.802C14.7311 71.6845 13.4155 69.1019 12.3037 67.0359L5.76276 54.5474C5.76276 54.5474 -3.77998 65.1174 1.68625 83.6749L42.2846 159.786Z" fill="#18C641"/>
</g>
<defs>
<linearGradient id="paint0_linear_766_8201" x1="0.166726" y1="62.4241" x2="93" y2="62.4241" gradientUnits="userSpaceOnUse">
<stop offset="0.07" stop-color="#005E44"/>
<stop offset="0.1" stop-color="#036D43"/>
<stop offset="0.22" stop-color="#12AD41"/>
<stop offset="0.28" stop-color="#18C641"/>
</linearGradient>
<clipPath id="clip0_766_8201">
<rect width="93" height="162" fill="white"/>
</clipPath>
</defs>
</svg>
