<svg width="19" height="19" viewBox="0 0 19 19" fill="none" xmlns="http://www.w3.org/2000/svg">
<path d="M10.947 8.05274C10.3532 7.45908 9.54787 7.12558 8.70818 7.12558C7.8685 7.12558 7.06319 7.45908 6.46935 8.05274L3.30268 11.2194C3.00023 11.5115 2.75899 11.8609 2.59303 12.2473C2.42707 12.6336 2.33971 13.0492 2.33606 13.4696C2.3324 13.8901 2.41253 14.3071 2.57175 14.6963C2.73097 15.0854 2.96611 15.439 3.26343 15.7363C3.56076 16.0337 3.91432 16.2688 4.3035 16.428C4.69267 16.5872 5.10965 16.6674 5.53012 16.6637C5.95059 16.66 6.36612 16.5727 6.75246 16.4067C7.13881 16.2408 7.48823 15.9995 7.78035 15.6971L8.65277 14.8254M8.05268 10.9471C8.64652 11.5407 9.45183 11.8742 10.2915 11.8742C11.1312 11.8742 11.9365 11.5407 12.5303 10.9471L15.697 7.78041C16.2738 7.18317 16.593 6.38326 16.5858 5.55297C16.5786 4.72268 16.2456 3.92844 15.6584 3.34131C15.0713 2.75419 14.2771 2.42115 13.4468 2.41394C12.6165 2.40672 11.8166 2.72591 11.2193 3.30274L10.3485 4.17357" stroke="black" stroke-width="2" stroke-linecap="round" stroke-linejoin="round"/>
</svg>
